<svg aria-hidden="true" style="position: absolute; width: 0; height: 0; overflow: hidden;" version="1.1" xmlns="http://www.w3.org/2000/svg" xmlns:xlink="http://www.w3.org/1999/xlink">
    <defs>
        <symbol id="icon-account" viewBox="0 0 32 32">
            <path fill="#e0e0e0" style="fill: var(--color1, #e0e0e0)" d="M4.48 7.040v17.92c0 1.414 1.146 2.56 2.56 2.56v0h17.92c1.408 0 2.56-1.152 2.56-2.56v-17.92c0-1.408-1.152-2.56-2.56-2.56h-17.92c-1.414 0-2.56 1.146-2.56 2.56v0zM19.84 12.16c0 2.125-1.715 3.84-3.84 3.84s-3.84-1.715-3.84-3.84 1.715-3.84 3.84-3.84 3.84 1.715 3.84 3.84zM8.32 22.4c0-2.56 5.12-3.968 7.68-3.968s7.68 1.408 7.68 3.968v1.28h-15.36v-1.28z">
			</path>
        </symbol>
        <symbol id="icon-email" viewBox="0 0 32 32">
            <path fill="#e0e0e0" style="fill: var(--color1, #e0e0e0)" d="M26.24 5.76h-20.48c-1.408 0-2.547 1.152-2.547 2.56l-0.013 15.36c0 1.408 1.152 2.56 2.56 2.56h20.48c1.408 0 2.56-1.152 2.56-2.56v-15.36c0-1.408-1.152-2.56-2.56-2.56zM26.24 10.88l-10.24 6.4-10.24-6.4v-2.56l10.24 6.4 10.24-6.4v2.56z">
			</path>
        </symbol>
        <symbol id="icon-password" viewBox="0 0 32 32">
            <path fill="#e0e0e0" style="fill: var(--color1, #e0e0e0)" d="M23.68 10.88h-1.28v-2.56c0-3.533-2.867-6.4-6.4-6.4s-6.4 2.867-6.4 6.4v2.56h-1.28c-1.408 0-2.56 1.152-2.56 2.56v12.8c0 1.408 1.152 2.56 2.56 2.56h15.36c1.408 0 2.56-1.152 2.56-2.56v-12.8c0-1.408-1.152-2.56-2.56-2.56zM16 22.4c-1.408 0-2.56-1.152-2.56-2.56s1.152-2.56 2.56-2.56 2.56 1.152 2.56 2.56-1.152 2.56-2.56 2.56zM19.968 10.88h-7.936v-2.56c0-2.189 1.779-3.968 3.968-3.968s3.968 1.779 3.968 3.968v2.56z">
			</path>
        </symbol>
        <symbol id="icon-wallet" viewBox="0 0 32 32">
            <path fill="#24cca7" style="fill: var(--color6, #24cca7)" d="M3.755 7.619l16.211-4.538-0.858-1.779c-0.562-1.156-1.931-1.634-3.059-1.058l-14.513 7.375h2.219zM24.814 3.048c-0.209 0-0.411 0.032-0.601 0.091l0.014-0.004-15.012 4.483h18.43l-0.692-2.778c-0.266-1.083-1.163-1.792-2.14-1.792z">
			</path>
            <path fill="#4a56e2" style="fill: var(--color2, #4a56e2)" d="M28.36 8.573h-26.56c-0.001 0-0.002 0-0.003 0-0.822 0-1.515 0.551-1.73 1.303l-0.003 0.013c-0.039 0.14-0.063 0.3-0.064 0.466v19.863c0.005 0.985 0.804 1.782 1.79 1.782 0.002 0 0.004 0 0.007 0h26.56c0.991 0 1.796-0.798 1.796-1.782v-4.974h-10.662c-1.686 0-3.054-1.358-3.054-3.030v-3.966c0-0.82 0.33-1.565 0.866-2.11 0.551-0.565 1.321-0.916 2.172-0.916 0.005 0 0.009 0 0.014 0h10.665v-4.867c-0.001-0.985-0.8-1.782-1.785-1.782-0.003 0-0.006 0-0.008 0h0z">
			</path>
            <path fill="#4a56e2" style="fill: var(--color2, #4a56e2)" d="M31.414 16.926c-0.318-0.29-0.743-0.467-1.209-0.467-0.001 0-0.001 0-0.002 0h-10.712c-0.992 0-1.797 0.798-1.797 1.782v3.969c0.005 0.985 0.804 1.782 1.79 1.782 0.002 0 0.005 0 0.007 0h10.712c0.205 0 0.399-0.036 0.582-0.096 0.237-0.079 0.449-0.208 0.629-0.371 0.359-0.325 0.586-0.795 0.586-1.316v-3.968c0-0.52-0.226-0.991-0.586-1.315zM23.242 20.581c0 0.492-0.402 0.891-0.898 0.891h-0.596c-0.496 0-0.898-0.4-0.898-0.891v-0.592c0-0.286 0.133-0.538 0.345-0.698 0.151-0.119 0.344-0.191 0.553-0.193h0.596c0.496 0 0.898 0.399 0.898 0.891v0.592z">
			</path>
        </symbol>
        <symbol id="icon-logo">
            <path fill="#24CCA7" d="M3.52 7.143 18.72 2.889l-.805-1.668C17.387.137 16.103-.31 15.045.23L1.44 7.143h2.08ZM23.262 2.857c-.183 0-.366.027-.549.082l-3.472 1.039L8.64 7.143h17.279l-.65-2.605c-.249-1.016-1.09-1.68-2.006-1.68Z" />
            <path fill="#4A56E2" d="M26.587 8.037H1.688A1.686 1.686 0 0 0 .06 9.27C.024 9.41 0 9.558 0 9.708V28.33c0 .922.755 1.67 1.684 1.67h24.9c.93 0 1.684-.748 1.684-1.67v-4.663h-9.995c-1.58 0-2.864-1.273-2.864-2.84V17.107c0-.768.31-1.467.812-1.978a2.843 2.843 0 0 1 2.049-.86h9.998V9.709a1.674 1.674 0 0 0-1.68-1.67Z" />
            <path fill="#4A56E2" d="M29.45 15.868a1.686 1.686 0 0 0-1.134-.438H18.273c-.93 0-1.685.75-1.685 1.672v3.72c0 .922.755 1.671 1.685 1.671H28.316c.192 0 .373-.034.545-.09.223-.074.421-.194.59-.348A1.66 1.66 0 0 0 30 20.822v-3.72c0-.488-.212-.93-.55-1.234Zm-7.66 3.426a.84.84 0 0 1-.842.836h-.56a.84.84 0 0 1-.842-.836v-.555c0-.267.125-.504.324-.655a.855.855 0 0 1 .518-.18H20.948a.84.84 0 0 1 .842.835v.555Z" />
            <path fill="#000" d="M68.13 7.455 64.013 23.25h-4.658l-2.52-10.395-2.61 10.395h-4.657L45.563 7.455h4.117l2.273 11.498 2.812-11.498h4.23l2.7 11.498L63.99 7.455h4.14ZM69.295 16.95c0-1.29.24-2.422.72-3.397.495-.976 1.162-1.726 2.002-2.25.84-.526 1.778-.788 2.813-.788.885 0 1.657.18 2.317.54.675.36 1.193.832 1.553 1.418v-1.778h3.847V23.25H78.7v-1.777c-.375.585-.9 1.057-1.576 1.417-.66.36-1.432.54-2.317.54-1.02 0-1.95-.262-2.79-.788-.84-.54-1.507-1.297-2.002-2.272-.48-.99-.72-2.13-.72-3.42Zm9.405.023c0-.96-.27-1.718-.81-2.273a2.56 2.56 0 0 0-1.935-.832c-.765 0-1.418.277-1.958.832-.525.54-.787 1.29-.787 2.25s.262 1.725.787 2.295c.54.555 1.193.832 1.958.832a2.56 2.56 0 0 0 1.934-.832c.54-.555.81-1.313.81-2.273ZM89.178 6.6v16.65h-3.847V6.6h3.847ZM95.814 6.6v16.65h-3.848V6.6h3.848ZM110.437 16.77c0 .36-.022.735-.067 1.125h-8.708c.06.78.308 1.38.743 1.8.45.405.997.607 1.642.607.96 0 1.628-.404 2.003-1.215h4.095a5.548 5.548 0 0 1-1.148 2.228 5.584 5.584 0 0 1-2.047 1.552c-.825.375-1.748.563-2.768.563-1.23 0-2.325-.262-3.285-.788a5.601 5.601 0 0 1-2.25-2.25c-.54-.974-.81-2.114-.81-3.42 0-1.305.263-2.445.787-3.42a5.6 5.6 0 0 1 2.251-2.25c.96-.524 2.062-.787 3.307-.787 1.215 0 2.295.255 3.24.765a5.42 5.42 0 0 1 2.205 2.183c.54.945.81 2.047.81 3.307Zm-3.937-1.012c0-.66-.225-1.185-.675-1.575-.45-.39-1.013-.585-1.688-.585-.645 0-1.192.187-1.642.562-.435.375-.705.908-.81 1.598h4.815ZM119.464 19.988v3.262h-1.957c-1.395 0-2.483-.337-3.263-1.012-.78-.69-1.17-1.808-1.17-3.353V13.89h-1.53v-3.195h1.53v-3.06h3.848v3.06h2.52v3.195h-2.52v5.04c0 .375.09.645.27.81.18.165.48.248.9.248h1.372Z" />
        </symbol>
        <symbol id="icon-logo-full" viewBox="0 0 120 30" fill="none">
            <path d="M3.52059 7.14286L18.7187 2.88927L17.9139 1.22119C17.3873 0.13694 16.1029 -0.310807 15.0455 0.229123L1.43994 7.14286H3.52059Z" fill="#24CCA7" />
            <path d="M23.2625 2.85718C23.0793 2.85718 22.8962 2.8845 22.713 2.93916L19.2414 3.97757L8.6394 7.1429H20.6734H25.9182L25.2688 4.53776C25.0191 3.52212 24.1782 2.85718 23.2625 2.85718Z" fill="#24CCA7" />
            <path d="M26.5873 8.03711H26.2032H25.6811H25.1589H21.1735H6.52891H4.60865H2.99158H2.69175H1.68782C1.15553 8.03711 0.680516 8.2811 0.370578 8.66548C0.229085 8.84263 0.12128 9.04651 0.0606401 9.27045C0.0235822 9.41083 0 9.5579 0 9.70831V9.90885V11.814V28.3288C0 29.2513 0.754632 30 1.68445 30H26.5839C27.5137 30 28.2684 29.2513 28.2684 28.3288V23.6662H18.2729C16.6929 23.6662 15.4093 22.3927 15.4093 20.8251V19.2943V18.7762V18.2582V17.1084C15.4093 16.3396 15.7193 15.6411 16.2212 15.1297C16.6659 14.6751 17.2622 14.3676 17.9292 14.2907C18.0404 14.2774 18.155 14.2707 18.2695 14.2707H26.8669H27.3891H27.9113H28.2684V9.70831C28.2717 8.78581 27.5171 8.03711 26.5873 8.03711Z" fill="#4A56E2" />
            <path d="M29.4508 15.8683C29.2824 15.7145 29.0836 15.5975 28.8613 15.5207C28.6894 15.4638 28.5075 15.4304 28.3155 15.4304H28.2717H28.238H27.7158H25.8326H18.2728C17.343 15.4304 16.5884 16.1791 16.5884 17.1016V17.9339V18.4519V18.97V20.8217C16.5884 21.7442 17.343 22.4929 18.2728 22.4929H28.2717H28.3155C28.5075 22.4929 28.6894 22.4595 28.8613 22.4027C29.0836 22.3291 29.2824 22.2088 29.4508 22.055C29.7877 21.7509 29.9999 21.3097 29.9999 20.8217V17.1016C29.9999 16.6136 29.7877 16.1724 29.4508 15.8683ZM21.7899 19.2942C21.7899 19.7555 21.4126 20.1298 20.9477 20.1298H20.3885C19.9236 20.1298 19.5463 19.7555 19.5463 19.2942V18.7394C19.5463 18.472 19.6709 18.2347 19.8697 18.0843C20.0145 17.974 20.1931 17.9038 20.3885 17.9038H20.53H20.9477C21.4126 17.9038 21.7899 18.2781 21.7899 18.7394V19.2942Z" fill="#4A56E2" />
            <path d="M68.13 7.4551L64.0125 23.2501H59.355L56.835 12.8551L54.225 23.2501H49.5675L45.5625 7.4551H49.68L51.9525 18.9526L54.765 7.4551H58.995L61.695 18.9526L63.99 7.4551H68.13Z" fill="black" />
            <path d="M69.2946 16.9501C69.2946 15.6601 69.5345 14.5276 70.0145 13.5526C70.5096 12.5776 71.1771 11.8276 72.0171 11.3026C72.8571 10.7776 73.7946 10.5151 74.8296 10.5151C75.7146 10.5151 76.4871 10.6951 77.1471 11.0551C77.8221 11.4151 78.3396 11.8876 78.6996 12.4726V10.6951H82.5471V23.2501H78.6996V21.4726C78.3246 22.0576 77.7995 22.5301 77.1245 22.8901C76.4646 23.2501 75.6921 23.4301 74.807 23.4301C73.7871 23.4301 72.8571 23.1676 72.0171 22.6426C71.1771 22.1026 70.5096 21.3451 70.0145 20.3701C69.5345 19.3801 69.2946 18.2401 69.2946 16.9501ZM78.6996 16.9726C78.6996 16.0126 78.4296 15.2551 77.8895 14.7001C77.3645 14.1451 76.7196 13.8676 75.9546 13.8676C75.1896 13.8676 74.5371 14.1451 73.9971 14.7001C73.4721 15.2401 73.2096 15.9901 73.2096 16.9501C73.2096 17.9101 73.4721 18.6751 73.9971 19.2451C74.5371 19.8001 75.1896 20.0776 75.9546 20.0776C76.7196 20.0776 77.3645 19.8001 77.8895 19.2451C78.4296 18.6901 78.6996 17.9326 78.6996 16.9726Z" fill="black" />
            <path d="M89.178 6.6001V23.2501H85.3305V6.6001H89.178Z" fill="black" />
            <path d="M95.8138 6.6001V23.2501H91.9663V6.6001H95.8138Z" fill="black" />
            <path d="M110.437 16.7701C110.437 17.1301 110.415 17.5051 110.37 17.8951H101.662C101.722 18.6751 101.97 19.2751 102.405 19.6951C102.855 20.1001 103.402 20.3026 104.047 20.3026C105.007 20.3026 105.675 19.8976 106.05 19.0876H110.145C109.935 19.9126 109.552 20.6551 108.997 21.3151C108.457 21.9751 107.775 22.4926 106.95 22.8676C106.125 23.2426 105.202 23.4301 104.182 23.4301C102.952 23.4301 101.857 23.1676 100.897 22.6426C99.937 22.1176 99.187 21.3676 98.647 20.3926C98.107 19.4176 97.837 18.2776 97.837 16.9726C97.837 15.6676 98.0995 14.5276 98.6245 13.5526C99.1645 12.5776 99.9145 11.8276 100.875 11.3026C101.835 10.7776 102.937 10.5151 104.182 10.5151C105.397 10.5151 106.477 10.7701 107.422 11.2801C108.367 11.7901 109.102 12.5176 109.627 13.4626C110.167 14.4076 110.437 15.5101 110.437 16.7701ZM106.5 15.7576C106.5 15.0976 106.275 14.5726 105.825 14.1826C105.375 13.7926 104.812 13.5976 104.137 13.5976C103.492 13.5976 102.945 13.7851 102.495 14.1601C102.06 14.5351 101.79 15.0676 101.685 15.7576H106.5Z" fill="black" />
            <path d="M119.464 19.9876V23.2501H117.507C116.112 23.2501 115.024 22.9126 114.244 22.2376C113.464 21.5476 113.074 20.4301 113.074 18.8851V13.8901H111.544V10.6951H113.074V7.6351H116.922V10.6951H119.442V13.8901H116.922V18.9301C116.922 19.3051 117.012 19.5751 117.192 19.7401C117.372 19.9051 117.672 19.9876 118.092 19.9876H119.464Z" fill="black" />
        </symbol>
    </defs>
</svg>